<?xml version="1.0" encoding="UTF-8" standalone="no"?>
<!-- Created with Inkscape (http://www.inkscape.org/) -->

<svg
   width="52mm"
   height="47mm"
   viewBox="0 0 52 47"
   version="1.1"
   id="svg5"
   inkscape:version="1.2.2 (732a01da63, 2022-12-09)"
   sodipodi:docname="logoVVSoloMioVerdana.svg"
   xmlns:inkscape="http://www.inkscape.org/namespaces/inkscape"
   xmlns:sodipodi="http://sodipodi.sourceforge.net/DTD/sodipodi-0.dtd"
   xmlns="http://www.w3.org/2000/svg"
   xmlns:svg="http://www.w3.org/2000/svg">
  <sodipodi:namedview
     id="namedview7"
     pagecolor="#ffffff"
     bordercolor="#666666"
     borderopacity="1.0"
     inkscape:pageshadow="2"
     inkscape:pageopacity="0.0"
     inkscape:pagecheckerboard="false"
     inkscape:document-units="mm"
     showgrid="false"
     inkscape:zoom="1.4142136"
     inkscape:cx="160.51324"
     inkscape:cy="115.96551"
     inkscape:window-width="1366"
     inkscape:window-height="715"
     inkscape:window-x="-8"
     inkscape:window-y="-8"
     inkscape:window-maximized="1"
     inkscape:current-layer="layer2"
     width="209mm"
     inkscape:showpageshadow="0"
     inkscape:deskcolor="#d1d1d1" />
  <defs
     id="defs2" />
  <g
     inkscape:groupmode="layer"
     id="layer2"
     inkscape:label="Dibujar">
    <path
       style="display:inline;fill:#E4333C;fill-opacity:1;stroke:#E4333C;stroke-width:0.264583px;stroke-linecap:butt;stroke-linejoin:miter;stroke-opacity:1"
       d="m 44.19893,22.340837 -0.92811,0.19263 c 1.15254,-1.85625 3.21904,-4.46508 -0.22766,-5.48119 -5.64603,-1.27857 -11.11452,0.38076 -16.671228,3.46734 -0.358528,-5.2201 -1.80004,-3.22728 -3.257193,-0.66545 -5.200146,-6.04404 -9.94646,-13.2878302 -15.4454009,-11.3126202 -1.981615,1.41705 -0.502438,10.2950302 5.3586089,12.6084902 -4.8835609,18.74594 1.032455,12.493627 10.597374,5.192574 5.267694,15.525251 6.302591,14.723163 10.346729,0.411196 3.00913,1.19195 9.79705,-0.72432 6.68951,-6.33926 l -0.66546,0.98066 -0.10506,-2.3816 2.66179,0.94563 -1.1908,0.24517 c 2.13644,2.41662 0.92826,8.60868 -6.65448,7.35495 C 29.731326,42.075211 29.959616,44.194628 23.297395,28.030711 14.520032,33.676851 6.8536313,42.888785 12.117334,21.605347 5.9755341,18.148617 4.6793001,10.241997 6.8988191,7.9461468 10.37237,6.1049668 14.932596,7.3064768 23.044691,18.453227 c 1.594556,-2.04317 3.158083,-3.71399 4.202829,0.84056 5.64689,-3.34576 10.83529,-4.06687 16.21592,-3.15212 4.82062,1.62724 1.46549,6.36806 0.73549,7.1273 z"
       id="path870"
       sodipodi:nodetypes="ccccccccccccccccccccccc" />
    <g
       aria-label=" ol     oreta"
       transform="matrix(0.88040566,0,0,0.7390061,4.1298892,9.0146069)"
       id="text1094"
       style="font-size:7.40833px;line-height:0;font-family:Verdana;-inkscape-font-specification:Verdana;display:inline;stroke-width:0.265">
      <path
         d="m 20.431536,35.37912 q -0.53699,0.772142 -1.243746,0.943643 -0.706756,0.171501 -1.371421,-0.290744 -0.670321,-0.466178 -0.755505,-1.188439 -0.08236,-0.720293 0.454634,-1.492436 0.53699,-0.772142 1.240918,-0.94561 0.708723,-0.174329 1.379044,0.291849 0.664665,0.462245 0.747882,1.187334 0.08519,0.72226 -0.451806,1.494403 z m -0.548701,-0.381598 q 0.426838,-0.613754 0.392963,-1.077927 -0.03191,-0.467001 -0.458991,-0.764017 -0.432739,-0.300951 -0.881652,-0.16834 -0.444117,0.13175 -0.870955,0.745504 -0.41307,0.593956 -0.387062,1.069442 0.02797,0.472657 0.457885,0.771641 0.424254,0.29505 0.875133,0.15961 0.455675,-0.136301 0.872679,-0.735913 z"
         style="font-size:7.05556px;line-height:1.25;fill:#E4333C"
         id="path1430" />
      <path
         d="m 20.803849,37.73254 -0.568954,-0.30948 2.561439,-4.709008 0.568955,0.30948 z"
         style="font-size:7.05556px;line-height:1.25;fill:#E4333C"
         id="path1432" />
      <path
         d="m 36.084506,36.557416 q 0.424114,0.839458 0.239081,1.542793 -0.185033,0.703334 -0.907643,1.068414 -0.72876,0.368187 -1.404709,0.09984 -0.672875,-0.269899 -1.096989,-1.109357 -0.424114,-0.839458 -0.242156,-1.541238 0.18348,-0.70641 0.91224,-1.074597 0.72261,-0.36508 1.400113,-0.09366 0.675949,0.268346 1.100063,1.107803 z m -0.596537,0.301385 q -0.337117,-0.667261 -0.761607,-0.858079 -0.426044,-0.193893 -0.89036,0.04069 -0.470465,0.23769 -0.56716,0.695684 -0.09517,0.453365 0.241942,1.120626 0.326242,0.645737 0.756946,0.848855 0.429151,0.200043 0.896542,-0.03609 0.46124,-0.23303 0.556382,-0.694098 0.09666,-0.465697 -0.232685,-1.117584 z"
         style="font-size:7.05556px;line-height:1.25;fill:#E4333C"
         id="path1434" />
      <path
         d="m 37.127292,33.624523 -0.02418,0.02454 q -0.12609,0.0789 -0.232619,0.167392 -0.106565,0.08362 -0.237127,0.216148 -0.210349,0.213512 -0.310479,0.506593 -0.102585,0.290664 -0.134217,0.622212 l 1.946149,1.917322 -0.454548,0.461382 -2.741296,-2.700691 0.454548,-0.461383 0.404936,0.398939 q 0.04992,-0.492469 0.16463,-0.790531 0.114673,-0.302935 0.329858,-0.521355 0.118473,-0.120254 0.179027,-0.166992 0.0581,-0.04916 0.181663,-0.140214 z"
         style="font-size:7.05556px;line-height:1.25;fill:#E4333C"
         id="path1436" />
      <path
         d="m 39.704016,31.588143 -1.41357,2.45781 q 0.307599,0.176911 0.590797,0.216587 0.280212,0.03796 0.519295,-0.03915 0.232662,-0.07285 0.426284,-0.243662 0.19534,-0.173799 0.343052,-0.43063 0.195804,-0.34045 0.258938,-0.761177 0.06186,-0.425432 0.01462,-0.64734 l 0.01718,-0.02986 0.612213,0.352105 q -0.04371,0.352411 -0.133122,0.69444 -0.08941,0.342029 -0.276624,0.667547 -0.477488,0.83022 -1.193391,1.038462 -0.71889,0.206524 -1.546124,-0.269246 -0.818275,-0.470617 -1.043166,-1.192122 -0.223174,-0.724492 0.195916,-1.453174 0.388174,-0.674928 0.991924,-0.812548 0.605468,-0.140607 1.331164,0.276765 z m -0.74436,0.29918 q -0.443706,-0.251216 -0.812705,-0.169346 -0.367283,0.07888 -0.62492,0.526844 -0.259355,0.450947 -0.148147,0.872588 0.112925,0.418655 0.486519,0.681213 z"
         style="font-size:7.05556px;line-height:1.25;fill:#E4333C"
         id="path1438" />
      <path
         d="m 42.252306,29.671758 q -0.01544,0.188221 -0.05861,0.403174 -0.04202,0.211704 -0.09833,0.370845 -0.196516,0.555368 -0.597591,0.738692 -0.401075,0.183323 -1.060372,-0.04997 l -1.929175,-0.682635 -0.14595,0.412466 -0.513148,-0.181576 0.145951,-0.412467 -1.042533,-0.368898 0.216052,-0.610581 1.042534,0.368899 0.445896,-1.260134 0.513148,0.181576 -0.445897,1.260134 1.653114,0.584952 q 0.285804,0.101131 0.452789,0.145601 0.163738,0.04332 0.330973,0.01479 0.155193,-0.02548 0.260571,-0.127062 0.10328,-0.105977 0.194068,-0.362551 0.05286,-0.149397 0.0681,-0.326725 0.01199,-0.178478 0.008,-0.260272 l 0.01149,-0.03248 z"
         style="font-size:7.05556px;line-height:1.25;fill:#E4333C"
         id="path1440" />
      <path
         d="m 43.124097,26.003749 -0.1347,0.629993 -0.400906,-0.08572 q 0.03926,0.09647 0.112728,0.263664 0.07081,0.163106 0.102643,0.31083 0.04363,0.174908 0.05022,0.391219 0.01,0.217031 -0.0491,0.493285 -0.108769,0.508712 -0.521298,0.790419 -0.412529,0.281708 -0.934717,0.170058 -0.427857,-0.09148 -0.651737,-0.32959 -0.22653,-0.242198 -0.30538,-0.614876 -0.07813,-0.376048 -0.02903,-0.869333 0.0491,-0.493285 0.140285,-1.051556 l -0.0977,-0.02089 q -0.215613,-0.0461 -0.373676,0.0011 -0.157343,0.04386 -0.268452,0.168072 -0.106299,0.11819 -0.173588,0.301089 -0.06729,0.182899 -0.11123,0.388405 -0.0533,0.249302 -0.05147,0.570283 -0.0015,0.320261 0.05324,0.673701 l -0.0072,0.03369 -0.643469,-0.137582 q -0.01092,-0.196097 0.0034,-0.559434 0.01427,-0.363337 0.08702,-0.703601 0.085,-0.397536 0.215045,-0.676228 0.127398,-0.282782 0.33184,-0.46454 0.200352,-0.179109 0.470056,-0.2377 0.269704,-0.05859 0.633551,0.0192 z m -1.061162,0.431905 -1.047744,-0.224021 q -0.0451,0.293332 -0.09569,0.694702 -0.04987,0.398002 -0.03484,0.640776 0.01914,0.289453 0.148202,0.493196 0.125694,0.203023 0.412054,0.264251 0.32342,0.06915 0.530277,-0.09095 0.203489,-0.160824 0.289207,-0.561729 0.07131,-0.333526 0.0024,-0.637153 -0.07232,-0.304346 -0.203823,-0.57907 z"
         style="font-size:7.05556px;line-height:1.25;fill:#E4333C"
         id="path1442" />
    </g>
  </g>
</svg>
