<?xml version="1.0" encoding="UTF-8" standalone="no"?>
<!-- Created with Inkscape (http://www.inkscape.org/) -->

<svg
   width="52mm"
   height="50mm"
   viewBox="0 0 52 50"
   version="1.1"
   id="svg5"
   inkscape:version="1.2.2 (732a01da63, 2022-12-09)"
   sodipodi:docname="logoVVSoloMioLVerdana.svg"
   xmlns:inkscape="http://www.inkscape.org/namespaces/inkscape"
   xmlns:sodipodi="http://sodipodi.sourceforge.net/DTD/sodipodi-0.dtd"
   xmlns="http://www.w3.org/2000/svg"
   xmlns:svg="http://www.w3.org/2000/svg">
  <sodipodi:namedview
     id="namedview7"
     pagecolor="#ffffff"
     bordercolor="#666666"
     borderopacity="1.0"
     inkscape:pageshadow="2"
     inkscape:pageopacity="0.0"
     inkscape:pagecheckerboard="0"
     inkscape:document-units="mm"
     showgrid="false"
     inkscape:zoom="1.4142136"
     inkscape:cx="160.51324"
     inkscape:cy="115.96551"
     inkscape:window-width="1366"
     inkscape:window-height="715"
     inkscape:window-x="-8"
     inkscape:window-y="-8"
     inkscape:window-maximized="1"
     inkscape:current-layer="layer2"
     width="209mm"
     inkscape:showpageshadow="0"
     inkscape:deskcolor="#d1d1d1" />
  <defs
     id="defs2" />
  <g
     inkscape:groupmode="layer"
     id="layer2"
     inkscape:label="Dibujar">
    <path
       style="display:inline;fill:#E4333C;fill-opacity:1;stroke:#E4333C;stroke-width:0.264583px;stroke-linecap:butt;stroke-linejoin:miter;stroke-opacity:1"
       d="m 44.19893,22.340837 -0.92811,0.19263 c 1.15254,-1.85625 3.21904,-4.46508 -0.22766,-5.48119 -5.64603,-1.27857 -11.11452,0.38076 -16.671228,3.46734 -0.358528,-5.2201 -1.80004,-3.22728 -3.257193,-0.66545 -5.200146,-6.04404 -9.94646,-13.2878302 -15.4454009,-11.3126202 -1.981615,1.41705 -0.502438,10.2950302 5.3586089,12.6084902 -4.8835609,18.74594 1.032455,12.493627 10.597374,5.192574 5.267694,15.525251 6.302591,14.723163 10.346729,0.411196 3.00913,1.19195 9.79705,-0.72432 6.68951,-6.33926 l -0.66546,0.98066 -0.10506,-2.3816 2.66179,0.94563 -1.1908,0.24517 c 2.13644,2.41662 0.92826,8.60868 -6.65448,7.35495 C 29.731326,42.075211 29.959616,44.194628 23.297395,28.030711 14.520032,33.676851 6.8536313,42.888785 12.117334,21.605347 5.9755341,18.148617 4.6793001,10.241997 6.8988191,7.9461468 10.37237,6.1049668 14.932596,7.3064768 23.044691,18.453227 c 1.594556,-2.04317 3.158083,-3.71399 4.202829,0.84056 5.64689,-3.34576 10.83529,-4.06687 16.21592,-3.15212 4.82062,1.62724 1.46549,6.36806 0.73549,7.1273 z"
       id="path870"
       sodipodi:nodetypes="ccccccccccccccccccccccc" />
    <g
       aria-label=" ol     oreta"
       transform="matrix(0.88040566,0,0,0.7390061,4.1298892,9.0146069)"
       id="text1094"
       style="font-size:7.40833px;line-height:0;font-family:Verdana;-inkscape-font-specification:Verdana;display:inline;stroke-width:0.265">
      <path
         d="m 20.431536,35.37912 q -0.53699,0.772142 -1.243746,0.943643 -0.706756,0.171501 -1.371421,-0.290744 -0.670321,-0.466178 -0.755505,-1.188439 -0.08236,-0.720293 0.454634,-1.492436 0.53699,-0.772142 1.240918,-0.94561 0.708723,-0.174329 1.379044,0.291849 0.664665,0.462245 0.747882,1.187334 0.08519,0.72226 -0.451806,1.494403 z m -0.548701,-0.381598 q 0.426838,-0.613754 0.392963,-1.077927 -0.03191,-0.467001 -0.458991,-0.764017 -0.432739,-0.300951 -0.881652,-0.16834 -0.444117,0.13175 -0.870955,0.745504 -0.41307,0.593956 -0.387062,1.069442 0.02797,0.472657 0.457885,0.771641 0.424254,0.29505 0.875133,0.15961 0.455675,-0.136301 0.872679,-0.735913 z"
         style="font-size:7.05556px;line-height:1.25;fill:#E4333C"
         id="path1430" />
      <path
         d="m 20.803849,37.73254 -0.568954,-0.30948 2.561439,-4.709008 0.568955,0.30948 z"
         style="font-size:7.05556px;line-height:1.25;fill:#E4333C"
         id="path1432" />
      <path
         d="m 36.084506,36.557416 q 0.424114,0.839458 0.239081,1.542793 -0.185033,0.703334 -0.907643,1.068414 -0.72876,0.368187 -1.404709,0.09984 -0.672875,-0.269899 -1.096989,-1.109357 -0.424114,-0.839458 -0.242156,-1.541238 0.18348,-0.70641 0.91224,-1.074597 0.72261,-0.36508 1.400113,-0.09366 0.675949,0.268346 1.100063,1.107803 z m -0.596537,0.301385 q -0.337117,-0.667261 -0.761607,-0.858079 -0.426044,-0.193893 -0.89036,0.04069 -0.470465,0.23769 -0.56716,0.695684 -0.09517,0.453365 0.241942,1.120626 0.326242,0.645737 0.756946,0.848855 0.429151,0.200043 0.896542,-0.03609 0.46124,-0.23303 0.556382,-0.694098 0.09666,-0.465697 -0.232685,-1.117584 z"
         style="font-size:7.05556px;line-height:1.25;fill:#E4333C"
         id="path1434" />
      <path
         d="m 37.127292,33.624523 -0.02418,0.02454 q -0.12609,0.0789 -0.232619,0.167392 -0.106565,0.08362 -0.237127,0.216148 -0.210349,0.213512 -0.310479,0.506593 -0.102585,0.290664 -0.134217,0.622212 l 1.946149,1.917322 -0.454548,0.461382 -2.741296,-2.700691 0.454548,-0.461383 0.404936,0.398939 q 0.04992,-0.492469 0.16463,-0.790531 0.114673,-0.302935 0.329858,-0.521355 0.118473,-0.120254 0.179027,-0.166992 0.0581,-0.04916 0.181663,-0.140214 z"
         style="font-size:7.05556px;line-height:1.25;fill:#E4333C"
         id="path1436" />
      <path
         d="m 39.704016,31.588143 -1.41357,2.45781 q 0.307599,0.176911 0.590797,0.216587 0.280212,0.03796 0.519295,-0.03915 0.232662,-0.07285 0.426284,-0.243662 0.19534,-0.173799 0.343052,-0.43063 0.195804,-0.34045 0.258938,-0.761177 0.06186,-0.425432 0.01462,-0.64734 l 0.01718,-0.02986 0.612213,0.352105 q -0.04371,0.352411 -0.133122,0.69444 -0.08941,0.342029 -0.276624,0.667547 -0.477488,0.83022 -1.193391,1.038462 -0.71889,0.206524 -1.546124,-0.269246 -0.818275,-0.470617 -1.043166,-1.192122 -0.223174,-0.724492 0.195916,-1.453174 0.388174,-0.674928 0.991924,-0.812548 0.605468,-0.140607 1.331164,0.276765 z m -0.74436,0.29918 q -0.443706,-0.251216 -0.812705,-0.169346 -0.367283,0.07888 -0.62492,0.526844 -0.259355,0.450947 -0.148147,0.872588 0.112925,0.418655 0.486519,0.681213 z"
         style="font-size:7.05556px;line-height:1.25;fill:#E4333C"
         id="path1438" />
      <path
         d="m 42.252306,29.671758 q -0.01544,0.188221 -0.05861,0.403174 -0.04202,0.211704 -0.09833,0.370845 -0.196516,0.555368 -0.597591,0.738692 -0.401075,0.183323 -1.060372,-0.04997 l -1.929175,-0.682635 -0.14595,0.412466 -0.513148,-0.181576 0.145951,-0.412467 -1.042533,-0.368898 0.216052,-0.610581 1.042534,0.368899 0.445896,-1.260134 0.513148,0.181576 -0.445897,1.260134 1.653114,0.584952 q 0.285804,0.101131 0.452789,0.145601 0.163738,0.04332 0.330973,0.01479 0.155193,-0.02548 0.260571,-0.127062 0.10328,-0.105977 0.194068,-0.362551 0.05286,-0.149397 0.0681,-0.326725 0.01199,-0.178478 0.008,-0.260272 l 0.01149,-0.03248 z"
         style="font-size:7.05556px;line-height:1.25;fill:#E4333C"
         id="path1440" />
      <path
         d="m 43.124097,26.003749 -0.1347,0.629993 -0.400906,-0.08572 q 0.03926,0.09647 0.112728,0.263664 0.07081,0.163106 0.102643,0.31083 0.04363,0.174908 0.05022,0.391219 0.01,0.217031 -0.0491,0.493285 -0.108769,0.508712 -0.521298,0.790419 -0.412529,0.281708 -0.934717,0.170058 -0.427857,-0.09148 -0.651737,-0.32959 -0.22653,-0.242198 -0.30538,-0.614876 -0.07813,-0.376048 -0.02903,-0.869333 0.0491,-0.493285 0.140285,-1.051556 l -0.0977,-0.02089 q -0.215613,-0.0461 -0.373676,0.0011 -0.157343,0.04386 -0.268452,0.168072 -0.106299,0.11819 -0.173588,0.301089 -0.06729,0.182899 -0.11123,0.388405 -0.0533,0.249302 -0.05147,0.570283 -0.0015,0.320261 0.05324,0.673701 l -0.0072,0.03369 -0.643469,-0.137582 q -0.01092,-0.196097 0.0034,-0.559434 0.01427,-0.363337 0.08702,-0.703601 0.085,-0.397536 0.215045,-0.676228 0.127398,-0.282782 0.33184,-0.46454 0.200352,-0.179109 0.470056,-0.2377 0.269704,-0.05859 0.633551,0.0192 z m -1.061162,0.431905 -1.047744,-0.224021 q -0.0451,0.293332 -0.09569,0.694702 -0.04987,0.398002 -0.03484,0.640776 0.01914,0.289453 0.148202,0.493196 0.125694,0.203023 0.412054,0.264251 0.32342,0.06915 0.530277,-0.09095 0.203489,-0.160824 0.289207,-0.561729 0.07131,-0.333526 0.0024,-0.637153 -0.07232,-0.304346 -0.203823,-0.57907 z"
         style="font-size:7.05556px;line-height:1.25;fill:#E4333C"
         id="path1442" />
    </g>
    <g
       aria-label="Por el medio ambiente"
       id="text1447"
       style="font-size:4.40972px;line-height:1.25;font-family:Verdana;-inkscape-font-specification:Verdana;display:inline;stroke:#211915;stroke-width:0.1;stroke-dasharray:none;stroke-opacity:1">
      <path
         d="m 3.3031604,41.728678 q 0,0.213165 -0.075362,0.396186 -0.073208,0.180867 -0.2067056,0.314364 -0.1657951,0.165796 -0.3918794,0.24977 -0.2260843,0.08182 -0.5705936,0.08182 H 1.6322899 v 1.195017 H 1.2059596 v -3.206091 h 0.8698861 q 0.2885266,0 0.4887727,0.04952 0.2002461,0.04737 0.3552753,0.150723 0.1830206,0.122732 0.282067,0.305752 0.1011997,0.183021 0.1011997,0.462935 z m -0.4435559,0.01077 q 0,-0.165795 -0.058136,-0.288527 Q 2.7433325,41.32819 2.6249074,41.250675 2.5215546,41.183925 2.3880572,41.155935 2.256713,41.125785 2.0543138,41.125785 h -0.422024 v 1.281145 h 0.3595817 q 0.258382,0 0.4198708,-0.04522 0.1614887,-0.04737 0.2626884,-0.14857 0.1011996,-0.103353 0.1421101,-0.217471 0.043064,-0.114119 0.043064,-0.256229 z"
         id="path1449"
         style="stroke:#211915;stroke-width:0.1;stroke-dasharray:none;stroke-opacity:1" />
      <path
         d="m 5.7750151,42.764359 q 0,0.587819 -0.3014457,0.928022 -0.3014457,0.340203 -0.8074439,0.340203 -0.5103045,0 -0.8117502,-0.340203 -0.2992925,-0.340203 -0.2992925,-0.928022 0,-0.587819 0.2992925,-0.928022 0.3014457,-0.342356 0.8117502,-0.342356 0.5059982,0 0.8074439,0.342356 0.3014457,0.340203 0.3014457,0.928022 z m -0.4177176,0 q 0,-0.467241 -0.1830207,-0.693325 -0.1830206,-0.228237 -0.5081513,-0.228237 -0.3294371,0 -0.5124577,0.228237 -0.1808674,0.226084 -0.1808674,0.693325 0,0.452169 0.1830206,0.686866 0.1830206,0.232544 0.5103045,0.232544 0.3229776,0 0.5059982,-0.230391 0.1851738,-0.232544 0.1851738,-0.689019 z"
         id="path1451"
         style="stroke:#211915;stroke-width:0.1;stroke-dasharray:none;stroke-opacity:1" />
      <path
         d="m 7.9023604,42.002132 h -0.021532 q -0.090434,-0.02153 -0.176561,-0.03014 -0.083974,-0.01077 -0.2002461,-0.01077 -0.187327,0 -0.3617348,0.08397 -0.1744079,0.08182 -0.3358967,0.213165 v 1.707475 H 6.4015914 V 41.56073 h 0.4047985 v 0.355275 q 0.2411566,-0.193787 0.4241772,-0.273454 0.1851738,-0.08182 0.3768071,-0.08182 0.105506,0 0.152876,0.0065 0.04737,0.0043 0.1421102,0.01938 z"
         id="path1453"
         style="stroke:#211915;stroke-width:0.1;stroke-dasharray:none;stroke-opacity:1" />
      <path
         d="m 11.846992,42.80527 h -1.77207 q 0,0.221778 0.06675,0.387573 0.06675,0.163642 0.18302,0.269148 0.111966,0.103352 0.264842,0.155029 0.155029,0.05168 0.340203,0.05168 0.245463,0 0.493079,-0.09689 0.249769,-0.09905 0.355275,-0.193787 h 0.02153 v 0.441403 q -0.204552,0.08613 -0.417717,0.144263 -0.213166,0.05814 -0.447863,0.05814 -0.598585,0 -0.9344813,-0.322977 -0.3358966,-0.325131 -0.3358966,-0.921563 0,-0.589972 0.3208244,-0.936635 0.3229775,-0.346662 0.8483545,-0.346662 0.486619,0 0.749308,0.28422 0.264841,0.28422 0.264841,0.807444 z M 11.45296,42.495211 q -0.0022,-0.318671 -0.161489,-0.493079 -0.157183,-0.174408 -0.48016,-0.174408 -0.325131,0 -0.518917,0.191634 -0.191634,0.191633 -0.217472,0.475853 z"
         id="path1455"
         style="stroke:#211915;stroke-width:0.1;stroke-dasharray:none;stroke-opacity:1" />
      <path
         d="m 12.869755,43.965836 h -0.404799 v -3.350354 h 0.404799 z"
         id="path1457"
         style="stroke:#211915;stroke-width:0.1;stroke-dasharray:none;stroke-opacity:1" />
      <path
         d="m 18.73072,43.965836 h -0.404798 v -1.369425 q 0,-0.155029 -0.01507,-0.299293 -0.01292,-0.144263 -0.05814,-0.23039 -0.04952,-0.09259 -0.14211,-0.139957 -0.09259,-0.04737 -0.266995,-0.04737 -0.170101,0 -0.340203,0.08613 -0.170101,0.08397 -0.340203,0.215318 0.0065,0.04952 0.01077,0.116272 0.0043,0.0646 0.0043,0.129191 v 1.539527 h -0.404799 v -1.369425 q 0,-0.159336 -0.01507,-0.301446 -0.01292,-0.144263 -0.05814,-0.230391 -0.04952,-0.09259 -0.14211,-0.137803 -0.09259,-0.04737 -0.266995,-0.04737 -0.165795,0 -0.333743,0.08182 -0.165796,0.08182 -0.331591,0.208858 v 1.795756 H 15.221031 V 41.56073 h 0.404798 v 0.266994 q 0.18948,-0.157182 0.376807,-0.245463 0.189481,-0.08828 0.402646,-0.08828 0.245463,0 0.415564,0.103353 0.172255,0.103352 0.256229,0.286373 0.245463,-0.206706 0.447862,-0.297139 0.202399,-0.09259 0.43279,-0.09259 0.396186,0 0.583513,0.241156 0.18948,0.239004 0.18948,0.66964 z"
         id="path1459"
         style="stroke:#211915;stroke-width:0.1;stroke-dasharray:none;stroke-opacity:1" />
      <path
         d="m 21.5234,42.80527 h -1.77207 q 0,0.221778 0.06675,0.387573 0.06675,0.163642 0.18302,0.269148 0.111966,0.103352 0.264842,0.155029 0.155029,0.05168 0.340203,0.05168 0.245463,0 0.493079,-0.09689 0.249769,-0.09905 0.355275,-0.193787 h 0.02153 v 0.441403 q -0.204552,0.08613 -0.417718,0.144263 -0.213165,0.05814 -0.447862,0.05814 -0.598585,0 -0.934481,-0.322977 -0.335897,-0.325131 -0.335897,-0.921563 0,-0.589972 0.320824,-0.936635 0.322978,-0.346662 0.848355,-0.346662 0.486619,0 0.749307,0.28422 0.264842,0.28422 0.264842,0.807444 z m -0.394033,-0.310059 q -0.0022,-0.318671 -0.161488,-0.493079 -0.157183,-0.174408 -0.48016,-0.174408 -0.325131,0 -0.518917,0.191634 -0.191634,0.191633 -0.217472,0.475853 z"
         id="path1461"
         style="stroke:#211915;stroke-width:0.1;stroke-dasharray:none;stroke-opacity:1" />
      <path
         d="m 24.08784,43.965836 h -0.404798 v -0.251923 q -0.174408,0.150723 -0.363888,0.234697 -0.18948,0.08397 -0.411258,0.08397 -0.430637,0 -0.684713,-0.33159 -0.251922,-0.33159 -0.251922,-0.919409 0,-0.305752 0.08613,-0.544756 0.08828,-0.239003 0.23685,-0.406952 0.146417,-0.163641 0.340203,-0.249769 0.19594,-0.08613 0.404799,-0.08613 0.18948,0 0.335897,0.04091 0.146416,0.03876 0.307905,0.122732 V 40.615482 H 24.08784 Z M 23.683042,43.37371 v -1.380191 q -0.163642,-0.07321 -0.292833,-0.101199 -0.129191,-0.02799 -0.282067,-0.02799 -0.340203,0 -0.529683,0.236851 -0.189481,0.23685 -0.189481,0.671793 0,0.428483 0.146417,0.652414 0.146416,0.221778 0.469394,0.221778 0.172255,0 0.348816,-0.07536 0.176561,-0.07752 0.329437,-0.198093 z"
         id="path1463"
         style="stroke:#211915;stroke-width:0.1;stroke-dasharray:none;stroke-opacity:1" />
      <path
         d="m 25.319462,41.158084 h -0.456475 v -0.419871 h 0.456475 z m -0.02584,2.807752 H 24.888826 V 41.56073 h 0.404798 z"
         id="path1465"
         style="stroke:#211915;stroke-width:0.1;stroke-dasharray:none;stroke-opacity:1" />
      <path
         d="m 28.144439,42.764359 q 0,0.587819 -0.301446,0.928022 -0.301446,0.340203 -0.807444,0.340203 -0.510304,0 -0.81175,-0.340203 -0.299293,-0.340203 -0.299293,-0.928022 0,-0.587819 0.299293,-0.928022 0.301446,-0.342356 0.81175,-0.342356 0.505998,0 0.807444,0.342356 0.301446,0.340203 0.301446,0.928022 z m -0.417718,0 q 0,-0.467241 -0.183021,-0.693325 -0.18302,-0.228237 -0.508151,-0.228237 -0.329437,0 -0.512458,0.228237 -0.180867,0.226084 -0.180867,0.693325 0,0.452169 0.183021,0.686866 0.18302,0.232544 0.510304,0.232544 0.322978,0 0.505998,-0.230391 0.185174,-0.232544 0.185174,-0.689019 z"
         id="path1467"
         style="stroke:#211915;stroke-width:0.1;stroke-dasharray:none;stroke-opacity:1" />
      <path
         d="m 32.190271,43.965836 h -0.402645 v -0.256229 q -0.05383,0.0366 -0.146417,0.103353 -0.09043,0.0646 -0.176561,0.103352 -0.101199,0.04952 -0.232544,0.08182 -0.131344,0.03445 -0.307905,0.03445 -0.325131,0 -0.551215,-0.215318 -0.226084,-0.215318 -0.226084,-0.549062 0,-0.273454 0.116272,-0.441403 0.118425,-0.170101 0.335896,-0.266994 0.219625,-0.09689 0.52753,-0.131344 0.307906,-0.03445 0.661028,-0.05168 v -0.06244 q 0,-0.137804 -0.04952,-0.228238 -0.04737,-0.09043 -0.137804,-0.14211 -0.08613,-0.04952 -0.206706,-0.06675 -0.120578,-0.01723 -0.251922,-0.01723 -0.159336,0 -0.355276,0.04306 -0.195939,0.04091 -0.404798,0.120578 h -0.02153 v -0.411258 q 0.118425,-0.0323 0.342356,-0.07106 0.223931,-0.03876 0.441403,-0.03876 0.254076,0 0.441403,0.04306 0.18948,0.04091 0.327283,0.14211 0.135651,0.09905 0.206706,0.256229 0.07106,0.157183 0.07106,0.389726 z M 31.787626,43.37371 v -0.66964 q -0.185174,0.01077 -0.437096,0.0323 -0.24977,0.02153 -0.396186,0.06244 -0.174408,0.04952 -0.282067,0.155029 -0.107659,0.103353 -0.107659,0.286374 0,0.206705 0.124884,0.312211 0.124885,0.103353 0.381114,0.103353 0.213165,0 0.389726,-0.08182 0.176561,-0.08397 0.327284,-0.200247 z"
         id="path1469"
         style="stroke:#211915;stroke-width:0.1;stroke-dasharray:none;stroke-opacity:1" />
      <path
         d="m 36.479413,43.965836 h -0.404798 v -1.369425 q 0,-0.155029 -0.01507,-0.299293 -0.01292,-0.144263 -0.05814,-0.23039 -0.04952,-0.09259 -0.14211,-0.139957 -0.09259,-0.04737 -0.266995,-0.04737 -0.170102,0 -0.340203,0.08613 -0.170102,0.08397 -0.340203,0.215318 0.0065,0.04952 0.01077,0.116272 0.0043,0.0646 0.0043,0.129191 v 1.539527 H 34.52217 v -1.369425 q 0,-0.159336 -0.01507,-0.301446 -0.01292,-0.144263 -0.05814,-0.230391 -0.04952,-0.09259 -0.14211,-0.137803 -0.09259,-0.04737 -0.266994,-0.04737 -0.165796,0 -0.333744,0.08182 -0.165795,0.08182 -0.33159,0.208858 v 1.795756 H 32.969724 V 41.56073 h 0.404799 v 0.266994 q 0.18948,-0.157182 0.376807,-0.245463 0.18948,-0.08828 0.402645,-0.08828 0.245463,0 0.415565,0.103353 0.172254,0.103352 0.256229,0.286373 0.245462,-0.206706 0.447862,-0.297139 0.202399,-0.09259 0.43279,-0.09259 0.396185,0 0.583512,0.241156 0.18948,0.239004 0.18948,0.66964 z"
         id="path1471"
         style="stroke:#211915;stroke-width:0.1;stroke-dasharray:none;stroke-opacity:1" />
      <path
         d="m 39.375446,42.74498 q 0,0.301446 -0.08613,0.542603 -0.08397,0.241156 -0.228237,0.404798 -0.152876,0.170102 -0.335897,0.256229 -0.183021,0.08397 -0.402645,0.08397 -0.204553,0 -0.357429,-0.04952 -0.152876,-0.04737 -0.301446,-0.129191 l -0.02584,0.111966 h -0.37896 v -3.350354 h 0.404798 v 1.19717 q 0.170102,-0.139957 0.361735,-0.228237 0.191634,-0.09043 0.430637,-0.09043 0.42633,0 0.671793,0.327284 0.247616,0.327284 0.247616,0.923715 z m -0.417717,0.01077 q 0,-0.430636 -0.14211,-0.652414 -0.142111,-0.223931 -0.458628,-0.223931 -0.176562,0 -0.357429,0.07751 -0.180867,0.07536 -0.335897,0.19594 v 1.378037 q 0.172255,0.07751 0.294987,0.10766 0.124884,0.03014 0.282067,0.03014 0.335896,0 0.525376,-0.219624 0.191634,-0.221778 0.191634,-0.693326 z"
         id="path1473"
         style="stroke:#211915;stroke-width:0.1;stroke-dasharray:none;stroke-opacity:1" />
      <path
         d="m 40.441269,41.158084 h -0.456475 v -0.419871 h 0.456475 z m -0.02584,2.807752 H 40.010633 V 41.56073 h 0.404798 z"
         id="path1475"
         style="stroke:#211915;stroke-width:0.1;stroke-dasharray:none;stroke-opacity:1" />
      <path
         d="m 43.229644,42.80527 h -1.77207 q 0,0.221778 0.06675,0.387573 0.06675,0.163642 0.183021,0.269148 0.111965,0.103352 0.264841,0.155029 0.15503,0.05168 0.340203,0.05168 0.245463,0 0.493079,-0.09689 0.24977,-0.09905 0.355276,-0.193787 h 0.02153 v 0.441403 q -0.204553,0.08613 -0.417718,0.144263 -0.213165,0.05814 -0.447862,0.05814 -0.598585,0 -0.934482,-0.322977 -0.335897,-0.325131 -0.335897,-0.921563 0,-0.589972 0.320825,-0.936635 0.322977,-0.346662 0.848354,-0.346662 0.48662,0 0.749308,0.28422 0.264842,0.28422 0.264842,0.807444 z m -0.394033,-0.310059 q -0.0022,-0.318671 -0.161489,-0.493079 -0.157182,-0.174408 -0.48016,-0.174408 -0.32513,0 -0.518917,0.191634 -0.191633,0.191633 -0.217471,0.475853 z"
         id="path1477"
         style="stroke:#211915;stroke-width:0.1;stroke-dasharray:none;stroke-opacity:1" />
      <path
         d="m 45.854375,43.965836 h -0.404799 v -1.369425 q 0,-0.165795 -0.01938,-0.310059 -0.01938,-0.146416 -0.07105,-0.228237 -0.05383,-0.09043 -0.15503,-0.133497 -0.101199,-0.04522 -0.262688,-0.04522 -0.165795,0 -0.346663,0.08182 -0.180867,0.08182 -0.346662,0.208858 v 1.795756 H 43.843301 V 41.56073 H 44.2481 v 0.266994 q 0.18948,-0.157182 0.391879,-0.245463 0.2024,-0.08828 0.415565,-0.08828 0.389726,0 0.594278,0.234697 0.204553,0.234697 0.204553,0.676099 z"
         id="path1479"
         style="stroke:#211915;stroke-width:0.1;stroke-dasharray:none;stroke-opacity:1" />
      <path
         d="m 47.882671,43.944304 q -0.114118,0.03014 -0.249769,0.04952 -0.133497,0.01938 -0.239003,0.01938 -0.368195,0 -0.559828,-0.198093 -0.191633,-0.198093 -0.191633,-0.635189 V 41.900933 H 46.368983 V 41.56073 h 0.273455 v -0.691172 h 0.404798 v 0.691172 h 0.835435 v 0.340203 h -0.835435 v 1.09597 q 0,0.18948 0.0086,0.297139 0.0086,0.105506 0.06029,0.198093 0.04737,0.08613 0.129191,0.127038 0.08397,0.03876 0.254076,0.03876 0.09905,0 0.206705,-0.02799 0.10766,-0.03014 0.15503,-0.04952 h 0.02153 z"
         id="path1481"
         style="stroke:#211915;stroke-width:0.1;stroke-dasharray:none;stroke-opacity:1" />
      <path
         d="m 50.384673,42.80527 h -1.77207 q 0,0.221778 0.06675,0.387573 0.06675,0.163642 0.183021,0.269148 0.111966,0.103352 0.264842,0.155029 0.155029,0.05168 0.340203,0.05168 0.245463,0 0.493079,-0.09689 0.249769,-0.09905 0.355275,-0.193787 h 0.02153 v 0.441403 q -0.204553,0.08613 -0.417718,0.144263 -0.213165,0.05814 -0.447862,0.05814 -0.598585,0 -0.934482,-0.322977 -0.335896,-0.325131 -0.335896,-0.921563 0,-0.589972 0.320824,-0.936635 0.322978,-0.346662 0.848354,-0.346662 0.48662,0 0.749308,0.28422 0.264842,0.28422 0.264842,0.807444 z M 49.99064,42.495211 q -0.0022,-0.318671 -0.161488,-0.493079 -0.157183,-0.174408 -0.48016,-0.174408 -0.325131,0 -0.518918,0.191634 -0.191633,0.191633 -0.217471,0.475853 z"
         id="path1483"
         style="stroke:#211915;stroke-width:0.1;stroke-dasharray:none;stroke-opacity:1" />
    </g>
  </g>
</svg>
