<svg class="svg-icon" style="width: 1em; height: 1em;vertical-align: middle;fill: currentColor;overflow: hidden;" viewBox="0 0 1024 1024" version="1.1" xmlns="http://www.w3.org/2000/svg"><path d="M717.827265 495.196386c94.086633-37.553016 160.620781-129.326601 160.620781-236.815307 0-140.891842-114.189742-255.115599-255.081584-255.115599-0.884401 0-1.734786 0.102046-2.619187 0.136062l0 34.015413c0.884401 0 1.734786-0.136062 2.619187-0.136062 122.081318 0 221.066171 98.984853 221.066171 221.100186 0 118.441669-93.202232 214.84135-210.215254 220.555939-4.490035-0.204092-8.912038-0.81637-13.436088-0.81637l0 0 0 35.239968c0.884401 0.034015 1.734786 0.136062 2.619187 0.136062 3.605634 0 7.143237-0.408185 10.714855-0.544247 162.763752 8.571884 292.804677 172.186022 292.804677 373.353176 0 48.57401-7.78953 94.834972-21.599787 137.422269l35.410045 0c12.891842-42.995482 20.205155-89.120383 20.205155-137.422269C960.901408 701.363805 858.344938 545.36912 717.827265 495.196386z"  /><path d="M500.298698 522.714855c94.086633-37.553016 160.620781-129.326601 160.620781-236.815307 0-140.891842-114.189742-255.115599-255.081584-255.115599S150.756311 145.007707 150.756311 285.865533c0 106.604305 65.41164 197.799628 158.239702 235.964922-141.980335 49.084241-245.897422 205.827265-245.897422 391.959607 0 38.165294 4.762158 74.90194 12.993888 109.9038l34.831783 0c-8.809992-34.763752-13.844273-71.568429-13.844273-109.9038 0-202.119585 131.163433-366.380016 295.151741-373.489237 4.52405 0.238108 8.980069 0.680308 13.57215 0.680308 3.605634 0 7.143237-0.408185 10.714855-0.544247 162.763752 8.571884 292.804677 172.186022 292.804677 373.353176 0 38.301355-5.000266 75.106032-13.810258 109.9038l34.831783 0c8.265745-35.00186 12.993888-71.738507 12.993888-109.9038C743.372841 728.882275 640.782355 572.88759 500.298698 522.714855zM403.252724 505.605102c-3.741695 0-7.381345 0.544247-11.089025 0.680308-115.720436-7.075206-207.42599-102.896625-207.42599-220.385862 0-122.115334 98.984853-221.100186 221.100186-221.100186 122.081318 0 221.066171 98.984853 221.066171 221.100186 0 118.441669-93.202232 214.84135-210.215254 220.555939C412.164762 506.21738 407.776774 505.605102 403.252724 505.605102z"  /></svg>